<svg xmlns="http://www.w3.org/2000/svg" xmlns:xlink="http://www.w3.org/1999/xlink" preserveAspectRatio="xMidYMid" width="44" height="44" viewBox="0 0 44 44">
  <defs>
    <style>
      .cls-1 {
        fill: #fff;
        fill-rule: evenodd;
      }
    </style>
  </defs>
  <path d="M27.429,42.606 C23.703,42.994 20.092,40.802 17.479,37.420 C16.521,36.179 12.904,30.563 12.904,30.563 C12.148,29.438 12.431,27.902 13.535,27.132 C14.640,26.362 16.147,26.650 16.902,27.775 L18.402,30.009 L18.402,12.988 C18.402,11.776 19.366,10.793 20.555,10.793 C21.744,10.793 22.709,11.776 22.709,12.988 L22.709,20.667 C22.709,19.455 23.673,18.473 24.862,18.473 C26.051,18.473 27.015,19.455 27.015,20.667 L27.015,21.764 C27.015,20.552 27.979,19.570 29.168,19.570 C30.357,19.570 31.322,20.552 31.322,21.764 L31.322,23.410 C31.322,22.198 32.286,21.215 33.475,21.215 C34.664,21.215 35.628,22.198 35.628,23.410 L35.628,34.380 C35.628,39.866 31.903,42.141 27.429,42.606 ZM30.080,17.170 C29.298,16.938 28.850,16.104 29.078,15.308 C30.459,10.491 27.736,5.428 23.009,4.021 C20.737,3.345 18.327,3.620 16.223,4.794 C14.120,5.969 12.596,7.891 11.932,10.206 C10.998,13.467 11.910,16.958 14.312,19.314 C14.898,19.889 14.916,20.839 14.352,21.437 C14.063,21.743 13.677,21.897 13.290,21.897 C12.922,21.897 12.554,21.758 12.269,21.477 C10.708,19.947 9.588,18.008 9.029,15.870 C8.471,13.733 8.497,11.483 9.104,9.364 C9.988,6.279 12.013,3.721 14.807,2.161 C17.601,0.601 20.807,0.238 23.835,1.139 C26.863,2.040 29.373,4.104 30.904,6.951 C32.435,9.798 32.791,13.065 31.907,16.150 C31.679,16.946 30.861,17.403 30.080,17.170 Z" class="cls-1"/>
</svg>
