<svg xmlns="http://www.w3.org/2000/svg" xmlns:xlink="http://www.w3.org/1999/xlink" preserveAspectRatio="xMidYMid" width="24" height="24" viewBox="0 0 24 24">
  <defs>
    <style>
      .cls-1 {
        fill: #fff;
        fill-rule: evenodd;
      }
    </style>
  </defs>
  <path d="M21.127,19.614 C20.892,20.173 20.571,20.660 20.168,21.078 C19.764,21.497 19.293,21.830 18.755,22.074 C18.217,22.317 17.638,22.440 17.018,22.440 C16.412,22.440 15.840,22.317 15.301,22.074 C14.764,21.830 14.292,21.497 13.889,21.078 C13.485,20.660 13.165,20.173 12.929,19.614 C12.693,19.056 12.576,18.455 12.576,17.813 C12.576,17.184 12.693,16.591 12.929,16.033 C13.165,15.475 13.485,14.987 13.889,14.569 C14.292,14.150 14.764,13.817 15.301,13.573 C15.840,13.330 16.412,13.207 17.018,13.207 C17.638,13.207 18.217,13.330 18.755,13.573 C19.293,13.817 19.764,14.150 20.168,14.569 C20.571,14.987 20.892,15.475 21.127,16.033 C21.363,16.590 21.481,17.184 21.481,17.813 C21.481,18.455 21.363,19.056 21.127,19.614 ZM20.036,17.343 C19.912,17.218 19.763,17.159 19.589,17.160 L17.672,17.194 L17.690,15.257 C17.693,15.082 17.632,14.933 17.509,14.809 C17.385,14.684 17.236,14.624 17.061,14.626 C16.887,14.630 16.737,14.695 16.609,14.823 C16.481,14.952 16.415,15.102 16.412,15.277 L16.380,17.199 L14.449,17.247 C14.274,17.249 14.123,17.317 13.995,17.443 C13.867,17.571 13.802,17.724 13.799,17.899 C13.796,18.074 13.856,18.223 13.980,18.347 C14.104,18.470 14.253,18.531 14.426,18.528 L16.358,18.511 L16.326,20.433 C16.323,20.607 16.383,20.756 16.508,20.881 C16.631,21.004 16.780,21.065 16.954,21.062 C17.128,21.060 17.280,20.993 17.407,20.864 C17.535,20.736 17.601,20.585 17.604,20.410 L17.651,18.473 L19.567,18.442 C19.742,18.439 19.893,18.373 20.021,18.245 C20.149,18.116 20.214,17.966 20.217,17.791 C20.220,17.616 20.159,17.467 20.036,17.343 ZM16.958,11.867 C15.948,11.867 15.022,12.111 14.181,12.600 C13.340,13.088 12.663,13.744 12.151,14.569 L6.276,14.569 C5.926,14.569 5.626,14.697 5.378,14.955 C5.128,15.214 5.004,15.525 5.004,15.888 C5.004,16.250 5.128,16.557 5.378,16.809 C5.626,17.060 5.926,17.185 6.276,17.185 L11.264,17.185 C11.250,17.296 11.243,17.395 11.243,17.478 L11.243,17.793 C11.243,18.420 11.330,19.017 11.506,19.583 C11.681,20.148 11.930,20.667 12.253,21.142 L5.084,21.142 C5.066,21.142 5.048,21.142 5.029,21.140 L3.237,21.140 C3.042,21.140 2.848,21.063 2.701,20.911 C2.553,20.756 2.479,20.556 2.479,20.355 L2.479,17.713 L2.481,17.713 L2.481,2.269 C2.481,2.068 2.553,1.867 2.702,1.713 C2.849,1.560 3.043,1.484 3.237,1.484 L12.596,1.484 L12.596,4.100 C12.596,4.366 12.637,4.652 12.717,4.959 C12.799,5.266 12.923,5.549 13.091,5.805 C13.259,6.064 13.478,6.280 13.747,6.455 C14.017,6.630 14.340,6.717 14.716,6.717 L17.665,6.717 L17.665,11.910 C17.543,11.895 17.422,11.884 17.301,11.879 C17.179,11.871 17.066,11.867 16.958,11.867 ZM14.747,9.711 C14.497,9.460 14.197,9.335 13.848,9.335 L6.276,9.335 C5.926,9.335 5.626,9.460 5.378,9.711 C5.128,9.962 5.004,10.269 5.004,10.632 C5.004,10.994 5.128,11.305 5.378,11.564 C5.626,11.822 5.926,11.951 6.276,11.951 L13.848,11.951 C14.197,11.951 14.497,11.822 14.747,11.564 C14.995,11.305 15.120,10.994 15.120,10.632 C15.120,10.269 14.995,9.962 14.747,9.711 ZM14.310,4.918 C14.014,4.611 13.866,4.209 13.866,3.808 L13.866,1.484 L16.906,1.484 C17.101,1.484 17.294,1.560 17.443,1.713 C17.591,1.867 17.665,2.068 17.665,2.269 L17.665,5.378 L15.381,5.378 C14.994,5.378 14.605,5.223 14.310,4.918 Z" class="cls-1"/>
</svg>
