<svg xmlns="http://www.w3.org/2000/svg" xmlns:xlink="http://www.w3.org/1999/xlink" preserveAspectRatio="xMidYMid" width="24" height="24" viewBox="0 0 24 24">
  <defs>
    <style>
      .cls-1 {
        fill: #999;
        fill-rule: evenodd;
      }
    </style>
  </defs>
  <path d="M21.500,13.000 L8.500,13.000 C7.672,13.000 7.000,12.328 7.000,11.500 C7.000,10.672 7.672,10.000 8.500,10.000 L21.500,10.000 C22.328,10.000 23.000,10.672 23.000,11.500 C23.000,12.328 22.328,13.000 21.500,13.000 ZM21.500,4.000 L8.500,4.000 C7.672,4.000 7.000,3.328 7.000,2.500 C7.000,1.672 7.672,1.000 8.500,1.000 L21.500,1.000 C22.328,1.000 23.000,1.672 23.000,2.500 C23.000,3.328 22.328,4.000 21.500,4.000 ZM3.000,22.000 L2.000,22.000 C1.448,22.000 1.000,21.552 1.000,21.000 L1.000,20.000 C1.000,19.448 1.448,19.000 2.000,19.000 L3.000,19.000 C3.552,19.000 4.000,19.448 4.000,20.000 L4.000,21.000 C4.000,21.552 3.552,22.000 3.000,22.000 ZM3.000,13.000 L2.000,13.000 C1.448,13.000 1.000,12.552 1.000,12.000 L1.000,11.000 C1.000,10.448 1.448,10.000 2.000,10.000 L3.000,10.000 C3.552,10.000 4.000,10.448 4.000,11.000 L4.000,12.000 C4.000,12.552 3.552,13.000 3.000,13.000 ZM3.000,4.000 L2.000,4.000 C1.448,4.000 1.000,3.552 1.000,3.000 L1.000,2.000 C1.000,1.448 1.448,1.000 2.000,1.000 L3.000,1.000 C3.552,1.000 4.000,1.448 4.000,2.000 L4.000,3.000 C4.000,3.552 3.552,4.000 3.000,4.000 ZM8.500,19.000 L21.500,19.000 C22.328,19.000 23.000,19.672 23.000,20.500 C23.000,21.328 22.328,22.000 21.500,22.000 L8.500,22.000 C7.672,22.000 7.000,21.328 7.000,20.500 C7.000,19.672 7.672,19.000 8.500,19.000 Z" class="cls-1"/>
</svg>
