<svg xmlns="http://www.w3.org/2000/svg" xmlns:xlink="http://www.w3.org/1999/xlink" preserveAspectRatio="xMidYMid" width="54" height="54" viewBox="0 0 54 54">
  <defs>
    <style>
      .cls-1 {
        fill: #fff;
        fill-rule: evenodd;
      }
    </style>
  </defs>
  <path d="M49.000,47.000 L5.000,47.000 C2.791,47.000 1.000,45.209 1.000,43.000 L1.000,17.000 C1.000,14.791 2.791,13.000 5.000,13.000 L14.200,13.000 L13.000,16.000 L17.000,6.000 L37.000,6.000 L41.000,16.000 L39.800,13.000 L49.000,13.000 C51.209,13.000 53.000,14.791 53.000,17.000 L53.000,43.000 C53.000,45.209 51.209,47.000 49.000,47.000 ZM34.000,9.000 L20.000,9.000 L17.000,16.000 L37.000,16.000 L34.000,9.000 ZM50.000,18.000 C50.000,16.895 49.105,16.000 48.000,16.000 L6.000,16.000 C4.895,16.000 4.000,16.895 4.000,18.000 L4.000,42.000 C4.000,43.105 4.895,44.000 6.000,44.000 L48.000,44.000 C49.105,44.000 50.000,43.105 50.000,42.000 L50.000,18.000 ZM39.724,31.574 C39.568,32.302 39.351,33.001 39.072,33.661 L38.248,33.185 L37.500,34.001 L31.999,28.000 L36.949,28.000 C36.442,23.061 32.181,20.000 27.000,20.000 C24.176,20.000 21.630,20.914 19.812,22.541 L17.121,20.987 C19.505,18.470 23.043,17.000 27.000,17.000 C33.839,17.000 39.433,21.379 39.949,28.000 L43.001,28.000 L39.724,31.574 ZM17.088,28.000 C17.052,28.330 17.000,28.652 17.000,29.000 C17.000,34.523 21.477,38.000 27.000,38.000 C29.824,38.000 32.370,37.086 34.188,35.459 L36.879,37.013 C34.495,39.530 30.957,41.000 27.000,41.000 C19.820,41.000 14.000,36.180 14.000,29.000 C14.000,28.660 14.023,28.329 14.049,28.000 L10.343,28.000 L16.000,22.343 L21.657,28.000 L17.088,28.000 Z" class="cls-1"/>
</svg>
