<svg xmlns="http://www.w3.org/2000/svg" xmlns:xlink="http://www.w3.org/1999/xlink" preserveAspectRatio="xMidYMid" width="44" height="44" viewBox="0 0 44 44">
  <defs>
    <style>
      .cls-1 {
        fill: #fff;
        fill-rule: evenodd;
      }
    </style>
  </defs>
  <path d="M1.000,24.000 L1.000,21.000 L43.000,21.000 L43.000,24.000 L1.000,24.000 ZM38.000,8.000 C38.000,6.895 37.105,6.000 36.000,6.000 L28.000,6.000 L28.000,3.000 L37.000,3.000 C39.209,3.000 41.000,4.791 41.000,7.000 L41.000,16.000 L38.000,16.000 L38.000,8.000 ZM6.000,8.000 L6.000,16.000 L3.000,16.000 L3.000,7.000 C3.000,4.791 4.791,3.000 7.000,3.000 L16.000,3.000 L16.000,6.000 L8.000,6.000 C6.895,6.000 6.000,6.895 6.000,8.000 ZM6.000,36.000 C6.000,37.105 6.895,38.000 8.000,38.000 L16.000,38.000 L16.000,41.000 L7.000,41.000 C4.791,41.000 3.000,39.209 3.000,37.000 L3.000,28.000 L6.000,28.000 L6.000,36.000 ZM38.000,36.000 L38.000,28.000 L41.000,28.000 L41.000,37.000 C41.000,39.209 39.209,41.000 37.000,41.000 L28.000,41.000 L28.000,38.000 L36.000,38.000 C37.105,38.000 38.000,37.105 38.000,36.000 Z" class="cls-1"/>
</svg>
