<svg xmlns="http://www.w3.org/2000/svg" xmlns:xlink="http://www.w3.org/1999/xlink" preserveAspectRatio="xMidYMid" width="24" height="24" viewBox="0 0 24 24">
  <defs>
    <style>
      .cls-1 {
        fill: #cbcbcb;
        fill-rule: evenodd;
      }
    </style>
  </defs>
  <path d="M12.000,23.000 C12.000,23.000 4.000,12.418 4.000,8.000 C4.000,3.581 7.581,-0.000 12.000,-0.000 C16.418,-0.000 19.999,3.581 19.999,8.000 C19.999,12.418 12.000,23.000 12.000,23.000 ZM12.000,2.000 C8.686,2.000 5.999,4.686 5.999,8.000 C5.999,11.313 12.000,20.000 12.000,20.000 C12.000,20.000 18.000,11.313 18.000,8.000 C18.000,4.686 15.313,2.000 12.000,2.000 ZM8.000,8.000 C8.000,5.791 9.791,4.000 12.000,4.000 C14.209,4.000 16.000,5.791 16.000,8.000 C16.000,10.209 14.209,12.000 12.000,12.000 C9.791,12.000 8.000,10.209 8.000,8.000 ZM12.000,10.000 C13.105,10.000 14.000,9.105 14.000,8.000 C14.000,6.895 13.105,6.000 12.000,6.000 C10.895,6.000 10.000,6.895 10.000,8.000 C10.000,9.105 10.895,10.000 12.000,10.000 Z" class="cls-1"/>
</svg>
