<svg xmlns="http://www.w3.org/2000/svg" xmlns:xlink="http://www.w3.org/1999/xlink" preserveAspectRatio="xMidYMid" width="24" height="24" viewBox="0 0 24 24">
  <defs>
    <style>
      .cls-1 {
        fill: #fff;
        fill-rule: evenodd;
      }
    </style>
  </defs>
  <path d="M20.547,9.812 L14.774,9.812 C17.011,1.428 13.233,1.000 13.233,1.000 C11.631,1.000 11.963,2.285 11.842,2.499 C11.842,6.599 7.551,9.812 7.551,9.812 L7.551,21.438 C7.551,22.586 9.092,22.999 9.697,22.999 L18.371,22.999 C19.187,22.999 19.852,20.827 19.852,20.827 C21.998,13.422 21.998,11.219 21.998,11.219 C21.998,9.690 20.547,9.812 20.547,9.812 L20.547,9.812 ZM5.182,9.816 L1.725,9.816 C1.011,9.816 1.000,10.527 1.000,10.527 L1.714,22.253 C1.714,22.999 2.450,22.999 2.450,22.999 L5.443,22.999 C6.066,22.999 6.060,22.506 6.060,22.506 L6.060,10.705 C6.060,9.804 5.182,9.816 5.182,9.816 L5.182,9.816 Z" class="cls-1"/>
</svg>
