<svg xmlns="http://www.w3.org/2000/svg" xmlns:xlink="http://www.w3.org/1999/xlink" preserveAspectRatio="xMidYMid" width="24" height="24" viewBox="0 0 24 24">
  <defs>
    <style>
      .cls-1 {
        fill: #fff;
        fill-rule: evenodd;
      }
    </style>
  </defs>
  <path d="M21.950,14.293 L15.586,20.657 L12.050,17.121 C11.660,16.731 11.660,16.098 12.050,15.707 C12.441,15.317 13.074,15.317 13.464,15.707 L15.586,17.828 L20.536,12.879 L20.536,12.879 C20.536,12.879 20.536,12.879 20.536,12.879 C20.926,12.488 21.559,12.488 21.950,12.879 C22.340,13.269 22.340,13.902 21.950,14.293 ZM12.000,8.000 L6.000,8.000 C5.448,8.000 5.000,7.552 5.000,7.000 C5.000,6.448 5.448,6.000 6.000,6.000 L12.000,6.000 C12.552,6.000 13.000,6.448 13.000,7.000 C13.000,7.552 12.552,8.000 12.000,8.000 ZM12.000,13.000 L6.000,13.000 C5.448,13.000 5.000,12.552 5.000,12.000 C5.000,11.448 5.448,11.000 6.000,11.000 L12.000,11.000 C12.552,11.000 13.000,11.448 13.000,12.000 C13.000,12.552 12.552,13.000 12.000,13.000 ZM18.414,10.757 L18.156,11.016 C18.103,11.014 18.053,11.000 18.000,11.000 C17.657,11.000 17.327,11.046 17.000,11.101 L17.000,4.000 C17.000,3.448 16.552,3.000 16.000,3.000 L4.000,3.000 C3.448,3.000 3.000,3.448 3.000,4.000 L3.000,20.000 C3.000,20.552 3.448,21.000 4.000,21.000 L13.557,21.000 C14.539,22.090 15.906,22.802 17.451,22.945 C17.305,22.978 17.156,23.000 17.000,23.000 L3.000,23.000 C1.895,23.000 1.000,22.105 1.000,21.000 L1.000,3.000 C1.000,1.895 1.895,1.000 3.000,1.000 L17.000,1.000 C18.105,1.000 19.000,1.895 19.000,3.000 L19.000,11.101 C18.912,11.086 18.819,11.086 18.730,11.074 L18.414,10.757 Z" class="cls-1"/>
</svg>
