<svg xmlns="http://www.w3.org/2000/svg" xmlns:xlink="http://www.w3.org/1999/xlink" preserveAspectRatio="xMidYMid" width="24" height="24" viewBox="0 0 24 24">
  <defs>
    <style>
      .cls-1 {
        fill: #fff;
        fill-rule: evenodd;
      }
    </style>
  </defs>
  <path d="M11.996,22.999 C11.996,22.999 3.998,13.805 3.998,9.249 C3.998,4.693 7.579,0.999 11.996,0.999 C16.415,0.999 19.998,4.693 19.998,9.249 C19.998,13.805 11.996,22.999 11.996,22.999 ZM11.996,3.749 C9.052,3.749 6.663,6.212 6.663,9.249 C6.663,12.286 9.052,14.749 11.996,14.749 C14.943,14.749 17.331,12.286 17.331,9.249 C17.331,6.212 14.943,3.749 11.996,3.749 ZM11.996,11.999 C10.525,11.999 9.331,10.768 9.331,9.249 C9.331,7.730 10.525,6.499 11.996,6.499 C13.470,6.499 14.665,7.730 14.665,9.249 C14.665,10.768 13.470,11.999 11.996,11.999 Z" class="cls-1"/>
</svg>
