<svg xmlns="http://www.w3.org/2000/svg" xmlns:xlink="http://www.w3.org/1999/xlink" preserveAspectRatio="xMidYMid" width="56" height="56" viewBox="0 0 56 56">
  <defs>
    <style>
      .cls-1 {
        fill: #bebebe;
        filter: url(#inner-shadow-1);
      }

      .cls-2 {
        fill: #555;
      }

      .cls-2, .cls-3 {
        fill-rule: evenodd;
      }

      .cls-3 {
        fill: #fff;
      }
    </style>

    <filter id="inner-shadow-1" filterUnits="userSpaceOnUse">
      <feOffset dx="-3.064" dy="-2.571" in="SourceAlpha"/>
      <feGaussianBlur stdDeviation="1.414" result="innerShadowBlur"/>
      <feFlood flood-color="#bebebe" flood-opacity="0.45"/>
      <feComposite operator="out" in2="innerShadowBlur"/>
      <feComposite operator="in" in2="SourceAlpha"/>
      <feBlend mode="multiply" in2="SourceGraphic" result="innerShadow"/>
    </filter>
  </defs>
  <g>
    <ellipse cx="28" cy="27" rx="26" ry="25" class="cls-1"/>
    <path d="M42.000,25.000 L42.000,24.000 C42.000,22.343 40.657,21.000 39.000,21.000 C37.343,21.000 36.000,22.343 36.000,24.000 L36.000,25.000 L34.000,25.000 L34.000,24.000 C34.000,21.239 36.239,19.000 39.000,19.000 C41.761,19.000 44.000,21.239 44.000,24.000 L44.000,25.000 L42.000,25.000 ZM22.000,24.000 C22.000,22.343 20.657,21.000 19.000,21.000 C17.343,21.000 16.000,22.343 16.000,24.000 L16.000,25.000 L14.000,25.000 L14.000,24.000 C14.000,21.239 16.239,19.000 19.000,19.000 C21.761,19.000 24.000,21.239 24.000,24.000 L24.000,25.000 L22.000,25.000 L22.000,24.000 Z" class="cls-2"/>
    <path d="M43.000,26.000 C42.448,26.000 42.000,25.552 42.000,25.000 C42.000,24.448 42.448,24.000 43.000,24.000 C43.552,24.000 44.000,24.448 44.000,25.000 C44.000,25.552 43.552,26.000 43.000,26.000 ZM35.000,26.000 C34.448,26.000 34.000,25.552 34.000,25.000 C34.000,24.448 34.448,24.000 35.000,24.000 C35.552,24.000 36.000,24.448 36.000,25.000 C36.000,25.552 35.552,26.000 35.000,26.000 ZM23.000,26.000 C22.448,26.000 22.000,25.552 22.000,25.000 C22.000,24.448 22.448,24.000 23.000,24.000 C23.552,24.000 24.000,24.448 24.000,25.000 C24.000,25.552 23.552,26.000 23.000,26.000 ZM15.000,26.000 C14.448,26.000 14.000,25.552 14.000,25.000 C14.000,24.448 14.448,24.000 15.000,24.000 C15.552,24.000 16.000,24.448 16.000,25.000 C16.000,25.552 15.552,26.000 15.000,26.000 Z" class="cls-2"/>
    <path d="M29.000,43.000 C22.611,43.000 16.971,39.836 13.527,35.000 L14.000,34.000 C14.336,33.951 14.448,34.000 15.000,34.000 C15.552,34.000 16.000,34.448 16.000,35.000 L16.051,35.000 C19.170,38.667 23.809,41.000 29.000,41.000 C34.191,41.000 38.830,38.667 41.949,35.000 L42.000,35.000 C42.000,34.448 42.448,34.000 43.000,34.000 C43.552,34.000 43.385,33.951 44.000,34.000 L44.473,35.000 C41.029,39.836 35.389,43.000 29.000,43.000 Z" class="cls-2"/>
    <path d="M6.887,22.000 L4.805,22.000 C6.840,14.462 12.601,8.455 20.000,6.093 L20.000,8.221 C13.711,10.447 8.806,15.577 6.887,22.000 Z" class="cls-3"/>
  </g>
</svg>
