<svg xmlns="http://www.w3.org/2000/svg" xmlns:xlink="http://www.w3.org/1999/xlink" preserveAspectRatio="xMidYMid" width="28" height="28" viewBox="0 0 28 28">
  <defs>
    <style>
      .cls-1 {
        fill: #fff;
        fill-rule: evenodd;
      }
    </style>
  </defs>
  <path d="M24.383,9.927 C24.023,9.834 23.618,9.763 23.168,9.763 L22.291,9.763 C22.269,9.950 20.020,9.763 20.020,9.763 L20.335,7.429 C20.447,6.006 20.470,4.512 20.470,3.462 C20.470,1.524 18.963,-0.039 17.096,-0.039 C15.229,-0.039 13.722,1.524 13.722,3.462 L13.722,4.162 C13.722,7.896 10.889,10.977 7.313,11.164 L3.603,11.164 C2.118,11.164 0.904,12.424 0.904,13.965 L0.904,25.168 C0.904,26.709 2.118,27.969 3.603,27.969 L21.144,27.969 L21.279,27.945 C22.426,27.899 23.483,27.245 24.068,26.218 C24.090,26.195 24.090,26.148 24.113,26.125 C24.248,25.798 27.149,18.189 27.734,15.925 C28.408,13.311 26.902,10.627 24.383,9.927 L24.383,9.927 ZM6.751,25.635 L3.603,25.635 C3.355,25.635 3.153,25.425 3.153,25.168 L3.153,13.965 C3.153,13.708 3.355,13.498 3.603,13.498 L6.751,13.498 L6.751,25.635 ZM25.552,15.318 C25.327,16.205 24.630,18.236 23.641,20.920 C23.281,21.900 22.921,22.904 22.539,23.861 C22.404,24.211 22.291,24.538 22.178,24.818 C22.134,24.935 22.089,25.028 22.066,25.121 C21.864,25.401 21.549,25.588 21.122,25.611 L9.000,25.611 L9.000,13.264 C13.003,12.307 15.972,8.573 15.972,4.162 L15.972,3.462 C15.972,2.808 16.467,2.295 17.096,2.295 C17.726,2.295 18.221,2.808 18.221,3.462 C18.221,5.772 18.086,7.920 17.816,9.273 L17.209,12.098 L23.168,12.121 C23.438,12.121 23.641,12.144 23.798,12.191 C25.125,12.541 25.912,13.965 25.552,15.318 L25.552,15.318 Z" class="cls-1"/>
</svg>
