<svg xmlns="http://www.w3.org/2000/svg" xmlns:xlink="http://www.w3.org/1999/xlink" preserveAspectRatio="xMidYMid" width="24" height="24" viewBox="0 0 24 24">
  <defs>
    <style>
      .cls-1 {
        fill: #fff;
        fill-rule: evenodd;
      }
    </style>
  </defs>
  <path d="M18.703,21.995 C16.595,21.995 14.886,20.199 14.886,17.983 C14.886,15.767 16.595,13.971 18.703,13.971 C20.812,13.971 22.521,15.767 22.521,17.983 C22.521,20.199 20.812,21.995 18.703,21.995 ZM16.692,16.793 C16.692,16.769 16.674,16.751 16.652,16.750 C16.450,16.749 16.248,16.751 16.047,16.749 C16.008,16.749 15.990,16.756 15.990,16.804 C15.991,17.879 15.991,18.957 15.990,20.034 C15.990,20.074 16.000,20.085 16.039,20.085 C16.249,20.084 16.460,20.085 16.670,20.084 C16.693,20.084 16.711,20.065 16.711,20.041 L16.692,16.793 ZM20.943,16.750 C20.629,16.747 20.316,16.749 20.001,16.749 L18.405,16.749 C18.491,16.669 18.565,16.599 18.643,16.533 C18.943,16.276 18.902,15.799 18.499,15.615 C18.268,15.510 18.046,15.557 17.854,15.734 C17.503,16.057 17.153,16.381 16.804,16.705 L16.821,20.111 C16.980,20.203 17.140,20.292 17.300,20.382 C17.330,20.399 17.359,20.406 17.394,20.406 L19.091,20.406 C19.153,20.406 19.211,20.396 19.270,20.380 C19.566,20.305 19.673,20.067 19.658,19.837 C19.651,19.737 19.615,19.647 19.558,19.566 C19.756,19.507 19.911,19.398 19.982,19.193 C20.054,18.983 19.998,18.797 19.854,18.642 C20.138,18.438 20.206,18.181 20.042,17.861 L20.919,17.861 C20.985,17.861 21.050,17.855 21.114,17.834 C21.436,17.733 21.606,17.391 21.474,17.095 C21.371,16.866 21.185,16.753 20.943,16.750 ZM5.550,6.239 C5.550,4.309 6.840,2.609 8.762,2.010 C9.063,1.920 9.696,5.496 9.696,5.496 L9.696,1.558 C9.696,1.246 9.930,1.000 10.200,1.000 L10.958,1.000 C11.228,1.000 11.462,1.254 11.462,1.558 L11.462,5.496 C11.462,5.496 12.087,1.920 12.388,2.010 C14.310,2.609 15.604,4.309 15.604,6.247 C15.604,6.740 16.772,6.017 16.776,8.193 L4.382,8.193 C4.382,6.034 5.550,6.736 5.550,6.239 ZM6.996,17.280 C7.277,17.099 7.492,16.922 7.645,16.754 C7.797,16.586 7.906,16.417 7.965,16.249 C8.024,16.081 8.055,15.908 8.055,15.723 C8.055,15.543 8.047,15.346 8.035,15.132 C8.008,14.796 7.906,14.537 7.727,14.356 C7.547,14.176 7.348,13.987 7.117,13.790 C7.008,13.691 6.918,13.556 6.836,13.379 C6.754,13.203 6.683,13.026 6.617,12.845 C6.550,12.636 6.484,12.418 6.418,12.197 C6.324,12.168 6.230,12.123 6.136,12.049 C6.054,11.979 5.968,11.880 5.874,11.753 C5.781,11.626 5.703,11.445 5.632,11.207 C5.566,10.973 5.542,10.755 5.566,10.567 C5.585,10.378 5.621,10.213 5.675,10.074 C5.726,9.918 5.808,9.774 5.917,9.630 C5.910,9.351 5.914,9.072 5.929,8.793 L15.291,8.793 C15.307,9.076 15.314,9.355 15.307,9.639 C15.400,9.692 15.475,9.778 15.525,9.893 C15.576,9.992 15.623,10.115 15.654,10.271 C15.686,10.427 15.690,10.612 15.662,10.838 C15.623,11.133 15.557,11.363 15.475,11.540 C15.385,11.716 15.291,11.852 15.186,11.950 C15.064,12.065 14.939,12.139 14.806,12.180 C14.756,12.402 14.693,12.624 14.627,12.829 C14.560,13.009 14.482,13.190 14.400,13.363 C14.310,13.539 14.216,13.675 14.111,13.773 C13.990,13.888 13.880,13.978 13.771,14.056 C13.662,14.130 13.572,14.212 13.490,14.295 C13.408,14.381 13.341,14.479 13.290,14.598 C13.240,14.717 13.197,14.861 13.169,15.030 C13.130,15.239 13.119,15.452 13.130,15.670 C13.142,15.884 13.197,16.105 13.290,16.319 C13.384,16.532 13.537,16.742 13.752,16.939 C13.806,16.989 13.865,17.038 13.929,17.085 C13.880,17.377 13.854,17.677 13.854,17.983 C13.854,19.606 14.576,21.052 15.701,21.985 L11.958,21.985 C11.958,21.981 11.958,21.981 11.958,21.977 C11.958,21.890 11.939,21.747 11.900,21.533 C11.860,21.324 11.810,21.090 11.759,20.843 C11.708,20.589 11.649,20.342 11.599,20.096 C11.548,19.850 11.497,19.653 11.458,19.497 C11.591,19.382 11.704,19.263 11.798,19.131 C11.892,18.996 11.939,18.860 11.939,18.721 C11.939,18.606 11.903,18.495 11.829,18.376 C11.759,18.257 11.673,18.158 11.579,18.072 C11.470,17.973 11.360,17.875 11.239,17.776 L10.243,17.776 C10.110,17.875 9.997,17.973 9.903,18.072 C9.821,18.158 9.751,18.253 9.684,18.368 C9.618,18.483 9.583,18.589 9.583,18.704 C9.583,18.790 9.629,18.901 9.731,19.041 C9.833,19.180 9.954,19.316 10.098,19.439 C10.059,19.566 10.005,19.747 9.938,19.985 C9.872,20.219 9.809,20.470 9.751,20.732 C9.692,20.991 9.637,21.238 9.590,21.467 C9.543,21.697 9.524,21.866 9.524,21.981 L9.524,21.981 L1.041,21.985 C1.010,21.603 1.049,21.377 1.159,20.638 C1.241,20.121 1.440,19.727 1.756,19.464 C2.077,19.197 2.456,18.988 2.886,18.836 C3.319,18.680 5.328,17.953 5.789,17.826 C6.250,17.698 6.652,17.518 6.996,17.280 Z" class="cls-1"/>
</svg>
