<svg xmlns="http://www.w3.org/2000/svg" xmlns:xlink="http://www.w3.org/1999/xlink" preserveAspectRatio="xMidYMid" width="24" height="24" viewBox="0 0 24 24">
  <defs>
    <style>
      .cls-1 {
        fill: #fff;
        fill-rule: evenodd;
      }
    </style>
  </defs>
  <path d="M20.314,22.993 L2.677,22.993 C1.750,22.993 0.997,22.204 0.997,21.233 L0.997,13.315 C0.997,12.344 1.750,11.555 2.677,11.555 L2.677,2.758 C2.677,1.787 3.430,0.998 4.356,0.998 L18.634,0.998 C19.561,0.998 20.314,1.784 20.314,2.758 L20.314,11.555 C21.240,11.555 21.994,12.342 21.994,13.315 L21.994,21.233 C21.994,22.204 21.240,22.993 20.314,22.993 ZM17.794,3.637 L5.196,3.637 L5.196,11.555 L6.204,11.555 L8.136,11.555 C8.136,12.063 8.243,12.542 8.427,12.978 C8.441,13.006 8.464,13.027 8.477,13.057 C8.758,13.674 9.185,14.173 9.701,14.522 C9.719,14.533 9.739,14.542 9.757,14.553 C9.974,14.693 10.209,14.799 10.451,14.884 C10.517,14.906 10.582,14.930 10.649,14.948 C10.922,15.023 11.203,15.074 11.495,15.074 C11.787,15.074 12.069,15.023 12.342,14.948 C12.409,14.930 12.474,14.906 12.540,14.884 C12.782,14.799 13.017,14.693 13.233,14.553 C13.251,14.542 13.271,14.533 13.289,14.521 C13.805,14.173 14.233,13.674 14.514,13.057 C14.527,13.028 14.549,13.006 14.564,12.978 C14.748,12.542 14.855,12.063 14.855,11.555 L16.786,11.555 L17.374,11.555 L17.382,11.555 L17.794,11.555 L17.794,3.637 ZM19.474,14.195 L16.807,14.195 C15.863,16.273 13.836,17.714 11.495,17.714 C9.154,17.714 7.128,16.273 6.183,14.195 L3.517,14.195 L3.517,20.353 L19.474,20.353 L19.474,14.195 ZM11.792,11.363 C11.545,11.621 11.225,11.751 10.902,11.751 C10.579,11.751 10.257,11.621 10.012,11.363 L7.488,8.718 C6.994,8.204 6.994,7.368 7.488,6.851 C7.981,6.335 8.776,6.335 9.270,6.851 L10.905,8.562 L13.726,5.606 C14.220,5.089 15.015,5.089 15.508,5.606 C16.002,6.123 16.002,6.956 15.508,7.473 L11.792,11.363 Z" class="cls-1"/>
</svg>
